<svg xmlns="http://www.w3.org/2000/svg" width="811.542" height="106.387" viewBox="16.029 9.765 811.542 106.387"><path fill="#2CCD97" d="M686.21 74.293c-7.713 0-12.854 6.744-12.854 13.023 0 5.814 3.74 9.767 9.348 9.767 7.71 0 12.852-6.512 12.852-13.023 0-5.58-3.74-9.767-9.347-9.767zm63.205-38.138c-5.608 0-11.918 3.023-17.06 7.674h-.233l-.467-6.28h-15.19l-15.89 78.602h18.695l2.804-14.418 1.402-10.93h.234a12.76 12.76 0 0 0 10.983 6.28c16.124 0 31.08-17.443 31.08-39.535 0-13.72-6.076-21.395-16.358-21.395zM733.29 81.968c-2.336 0-4.906-1.395-6.075-4.418l3.973-19.767c2.804-5.116 6.777-6.51 9.815-6.51 3.272 0 5.375 2.557 5.375 8.603 0 13.022-6.31 22.092-13.087 22.092zm80.495-45.813c-7.01 0-13.086 3.488-17.76 7.674h-.467l2.804-10.233 3.973-18.836H783.64L767.282 95.69h18.695l7.244-37.208c4.207-4.418 7.01-6.51 10.283-6.51 3.038 0 4.907 1.627 4.907 4.882 0 1.395-.467 3.023-.935 5.116l-6.777 33.72h18.694l7.244-36.045c.7-2.79.935-5.814.935-8.372.002-9.998-4.204-15.115-13.785-15.115zM229.304 50.535c0-10.134-4.378-15.318-14.35-15.318-7.783 0-14.593 4.242-20.186 8.955h-.487v-7.54h-15.808l-11.918 58.916h19.457l7.54-37.707c4.38-4.477 7.298-6.597 10.703-6.597 3.162 0 5.107 1.65 5.107 4.95 0 1.413-.487 3.062-.973 5.183l-7.053 34.172h19.457l7.54-36.528c.61-2.83.974-5.892.974-8.485zM154.278 36.63l-2.675 5.893h-.243c-2.19-4.478-7.54-7.306-12.647-7.306-16.782 0-32.347 17.675-32.347 40.063 0 13.904 6.324 21.68 17.025 21.68 5.838 0 12.892-3.298 18.242-8.72h.243v7.307h15.81l12.16-58.917h-15.567zm-11.43 37.236c-3.163 6.363-7.54 7.777-10.702 7.777-3.405 0-5.594-2.592-5.594-8.72 0-13.197 6.567-22.388 13.62-22.388 2.19 0 5.107 1.414 6.567 4.478l-3.893 18.853zM263.712 60.67c-4.62-2.594-9.73-4.007-9.73-7.307 0-2.356 2.433-4.242 6.325-4.242 3.89 0 7.296 2.358 10.215 5.186l10.458-9.662c-5.106-5.184-11.917-9.427-20.672-9.427-13.62 0-24.565 8.484-24.565 19.796 0 7.777 5.716 13.197 11.674 16.497 6.323 3.535 10.215 4.713 10.215 7.777 0 2.357-3.162 4.006-6.81 4.006s-7.783-1.885-12.16-6.834l-11.19 8.954c5.352 7.777 15.08 11.547 22.133 11.547 15.322 0 26.267-8.01 26.267-19.795 0-8.72-6.322-13.432-12.16-16.496zm231.634-31.58c6.567 0 11.674-4.478 11.674-10.605 0-5.656-5.106-8.72-10.214-8.72-6.567 0-11.674 4.95-11.674 10.605 0 5.89 5.107 8.72 10.215 8.72zM27.81 34.132C25.124 48.71 16.03 96.106 16.03 96.106l19.874.16s14.636-76.26 16.5-82.73C43.24 11.58 31.21 15.69 27.81 34.132zm52.416 1.085c-16.782 0-34.536 14.376-34.536 37.235 0 14.61 9.73 24.51 24.32 24.51 16.783 0 34.537-14.376 34.537-37.236 0-14.61-9.728-24.51-24.32-24.51zM72.2 81.88c-4.62 0-6.81-3.77-6.81-9.663 0-12.726 5.594-21.917 12.647-21.917 4.62 0 6.81 3.77 6.81 9.662 0 12.726-5.594 21.917-12.647 21.917zM557.81 49.47c-1.146 1.582-2.392 3.054-3.53 4.646l-.2.15v.1a4.66 4.66 0 0 1-.1.05c-.016.05-.032.1-.05.15l-.2.15v.1c-.033.018-.066.034-.1.05l-.05.15-.2.152v.1l-.15.1v.1l-.2.15v.1a4.66 4.66 0 0 0-.1.05l-.05.152-.2.15v.1l-.1.05-.05.15-.2.15v.1a4.66 4.66 0 0 1-.1.05l-.05.15-.2.15v.1c-.05.034-.1.068-.15.1v.1l-.2.15v.1l-.2.15v.1c-.05.035-.1.068-.15.1v.1c-.067.05-.134.1-.2.152v.1l-.1.05-.05.15-.2.15v.1a4.66 4.66 0 0 0-.1.05l-.05.15-.2.15v.1l-.1.05-.05.15-.2.15v.1l-.15.1v.1l-.2.15c-1.4 1.957-2.957 3.755-4.355 5.713l-.2.15v.1l-.15.1v.1l-.2.15v.1l-.2.15v.1a4.66 4.66 0 0 0-.1.05l-.05.15-.2.15v.1l-.1.05-.05.15-.2.15v.1l-.1.05-.05.15-.2.15v.1l-.1.05-.05.15-.2.15v.1l-.1.05-.05.15-.2.15v.1l-.15.1v.1l-.2.15v.1l-.15.1v.1l-.2.15v.1c-.033.018-.066.035-.1.05l-.05.152-.2.15v.1c-.05.032-.1.066-.15.1v.1l-.2.15v.1a4.66 4.66 0 0 1-.1.05l-.05.15-.2.15v.1a3.106 3.106 0 0 0-.1.05l-.05.15-.2.15v.1a4.66 4.66 0 0 0-.1.05l-.05.15-.2.15v.1c-.033.018-.067.034-.1.05l-.05.15-.2.15v.1a4.66 4.66 0 0 0-.1.05l-.05.15-.2.15v.1c-.05.035-.1.068-.15.1v.1l-.2.15v.1c-.05.035-.1.068-.15.1v.1l-.2.15v.1c-.033.018-.066.034-.1.05l-.05.15-.2.15v.1c-.05.035-.1.068-.15.1v.1l-.2.15v.1l-.2.15v.1a4.66 4.66 0 0 1-.1.05l-.05.15-.2.15v.1a3.106 3.106 0 0 0-.1.05l-.05.15-.2.15v.1c-.033.017-.067.035-.1.05l-.05.152-.2.15v.1l-.1.05-.05.15-.2.15v.1l-.15.1v.1l-.2.15v.1c-.05.034-.1.068-.15.1v.1l-.2.15c-1.402 1.958-2.958 3.756-4.357 5.714l-.2.15v.1l-.2.15v.1a4.66 4.66 0 0 1-.1.05l-.05.152-.2.15v.1l-.1.05-.05.15-.2.15v.1c-.05.035-.1.068-.15.1v.1l-.2.152v.1l-.1.05-.05.15-.2.15v.1a3.106 3.106 0 0 0-.1.05l-.05.15-.2.15v.1c-.033.018-.067.034-.1.05l-.05.15c-.067.05-.134.1-.2.152v.1l-.15.1v.1l-.2.15v.1l-.25.2-.1.15h-.05v.1l-.15.05-.2.25-.2.05v.05c-.71.307-1.258-.406-1.553-.702l-.2-.15-.05-.1h-.1l-1.05-1.102-.2-.15v-.05h-.1l-.502-.552a6.55 6.55 0 0 0-.8-.7l-.35-.402c-.303-.303-.6-.598-.952-.852l-.25-.3c-.318-.32-.63-.635-1-.903l-.5-.552-1.252-1.153-.75-.802c-.37-.268-.684-.584-1.002-.902l-.25-.3h-.1l-.15-.2-.4-.35-.6-.653c-.37-.268-.684-.584-1.002-.902l-.3-.35h-.1l-1-1.053-.15-.1v-.05h-.1L512 73.33c-.05-.034-.1-.068-.15-.1v-.05h-.1l-.15-.2c-.15-.135-.3-.27-.45-.402-.185-.2-.368-.4-.552-.602h-.1l-.05-.1h-.05l-1.1-1.153h-.1l-.4-.45c-.316-.316-.65-.516-.802-1.003-.047-.15.06-.613.1-.702h.05v-.1a4.66 4.66 0 0 1 .1-.05v-.1l.4-.35.35-.402.15-.1v-.1l.35-.3.4-.452.2-.15v-.1l.902-.852v-.1l.55-.5.3-.352c.05-.033.1-.067.152-.1v-.1l.95-.902v-.1c.335-.318.67-.635 1.002-.953v-.1l.35-.3.05-.1c.12-.084.26-.094.352-.2l.4-.05c.695.16 1.025.676 1.452 1.103.254.254.505.487.8.702l.702.752.45.4.15.2h.1l.3.352c.315.316.636.637 1 .902l.3.35.702.653.25.3h.1l.65.7c.15.135.3.268.452.402l.15.2h.1l.3.35c.315.317.636.64 1 .903l.602.65 1 .903c.175.174.457.584.702.65.034-.063.078-.067.1-.1v-.1c.05-.032.1-.066.15-.1v-.1l.2-.15v-.1c.05-.032.1-.066.15-.1v-.1l.2-.15v-.1a4.66 4.66 0 0 1 .1-.05l.05-.15.2-.15v-.1l.1-.05c.018-.05.035-.1.05-.15l.2-.15v-.1a4.66 4.66 0 0 1 .1-.05l.05-.15c.067-.05.134-.1.2-.152v-.1l.15-.1v-.1l.2-.15v-.1l.15-.1v-.1l.2-.15v-.1a4.66 4.66 0 0 1 .1-.05c.018-.05.034-.1.05-.15l.2-.15v-.1l.1-.05c.018-.05.035-.1.05-.15l.2-.15v-.1l.15-.1v-.1l.2-.15c1.29-1.8 2.718-3.46 4.006-5.262l.2-.15v-.1l.1-.05.05-.15.2-.15v-.1l.1-.05.05-.15.2-.15v-.1c.05-.035.1-.068.15-.1v-.1l.1-.05v-.05c.033-.017.067-.035.1-.05v-.1l.2-.15v-.1a4.66 4.66 0 0 1 .1-.05l.05-.15.2-.15v-.1c.033-.017.067-.035.1-.05l.05-.15.2-.15v-.1c.034-.018.067-.035.1-.05.018-.05.034-.1.05-.15l.2-.15v-.1c.05-.034.1-.068.15-.1v-.1l.2-.15v-.1a4.66 4.66 0 0 1 .1-.05c.018-.05.034-.1.05-.15l.2-.15v-.1a4.66 4.66 0 0 1 .1-.05c.018-.05.034-.1.05-.152l.2-.15v-.1l.15-.1v-.1l.2-.15c1.29-1.802 2.718-3.46 4.006-5.263l.2-.152v-.1l.1-.05.05-.15.2-.15v-.1l.1-.05.05-.15.2-.15v-.1c.033-.018.066-.035.1-.05l.05-.15c.067-.05.134-.1.2-.152v-.1l.15-.1v-.1l.2-.15v-.1a4.66 4.66 0 0 0 .1-.05l.05-.15.2-.15v-.1l.1-.05.05-.15.2-.15v-.1l.1-.05.05-.15.2-.15v-.1l.2-.15v-.1l.15-.1v-.1l.2-.15v-.1l.15-.1v-.1l.2-.15c1.4-1.957 2.958-3.755 4.356-5.713l.2-.15v-.1l.1-.05.05-.15.2-.15v-.1a4.66 4.66 0 0 0 .1-.05l.05-.15.2-.15v-.1c.05-.035.1-.068.15-.1v-.1l.2-.15.046-.14c-4.088-3.243-9.45-5.08-15.722-5.08-16.782 0-34.536 14.376-34.536 37.235 0 14.61 9.728 24.51 24.32 24.51 16.783 0 34.537-14.376 34.537-37.236-.008-3.758-.663-7.2-1.87-10.25zm63.997 1.063c0-10.134-4.378-15.318-14.35-15.318-7.783 0-14.593 4.242-20.187 8.955h-.486v-7.54h-15.81L559.06 95.547h19.457l7.54-37.707c4.377-4.477 7.295-6.597 10.7-6.597 3.163 0 5.108 1.65 5.108 4.95 0 1.413-.487 3.062-.973 5.183l-7.053 34.172h19.457l7.54-36.528c.61-2.83.973-5.892.973-8.485zm-308.12-15.318c-16.78 0-34.535 14.376-34.535 37.235 0 14.61 9.73 24.51 24.32 24.51 16.783 0 34.538-14.376 34.538-37.236 0-14.61-9.73-24.51-24.322-24.51zm-8.025 46.662c-4.62 0-6.81-3.77-6.81-9.663 0-12.726 5.594-21.917 12.647-21.917 4.62 0 6.81 3.77 6.81 9.662 0 12.726-5.595 21.917-12.648 21.917zm176.795-45.25l-12.16 58.918h19.456l12.16-58.917h-19.456zm173.76 24.04c-4.622-2.594-9.73-4.007-9.73-7.307 0-2.356 2.432-4.242 6.324-4.242s7.297 2.358 10.216 5.186l10.458-9.662c-5.108-5.184-11.917-9.427-20.673-9.427-13.62 0-24.564 8.484-24.564 19.796 0 7.777 5.716 13.197 11.674 16.497 6.323 3.535 10.215 4.713 10.215 7.777 0 2.357-3.16 4.006-6.81 4.006-3.648 0-7.783-1.885-12.16-6.834l-11.19 8.954c5.352 7.777 15.08 11.547 22.133 11.547 15.323 0 26.267-8.01 26.267-19.795.002-8.72-6.322-13.432-12.16-16.496zM349.283 34.13c-2.688 14.578-11.782 61.974-11.782 61.974l19.875.16s14.636-76.26 16.5-82.73c-9.164-1.957-21.193 2.155-24.593 20.596zm55.6 40.205c-3.89 4.478-6.81 6.6-9.972 6.6s-5.107-1.65-5.107-4.95c0-1.414.486-3.064.973-5.185l7.053-34.172h-19.456l-7.54 36.528c-.607 2.828-.972 5.892-.972 8.484 0 10.134 4.378 15.318 14.35 15.318 7.296 0 14.35-4.242 19.457-8.955h.485v7.54h15.81L431.88 36.63h-19.456l-7.54 37.707zm55.08-23.095h10.254l2.92-14.61h-9.768l2.918-15.083h-16.295l-5.35 15.08-8.757.708-2.918 13.904h7.782l-4.62 21.446c-.488 2.592-.974 5.184-.974 7.777 0 9.662 5.35 16.496 18.24 16.496 6.81 0 6.87-1.413 10.274-2.59l1.645-13.2c-1.46.708-2.92 1.18-4.378 1.18-3.892 0-5.837-1.65-5.837-5.186 0-1.178 0-2.357.243-3.77l4.62-22.152z"/></svg>